name GIL12_fast2.mot
datacolumns 153
datarows 4
range 0.29166669 0.31666672
endheader

                time	           pelvis_tx	           pelvis_ty	           pelvis_tz	         pelvis_tilt	         pelvis_list	     pelvis_rotation	       hip_flexion_r	     hip_adduction_r	      hip_rotation_r	        knee_angle_r	       ankle_angle_r	    subtalar_angle_r	         mtp_angle_r	       hip_flexion_l	     hip_adduction_l	      hip_rotation_l	        knee_angle_l	       ankle_angle_l	    subtalar_angle_l	         mtp_angle_l	    lumbar_extension	      lumbar_bending	     lumbar_rotation	     ground_force_vx	     ground_force_vy	     ground_force_vz	     ground_force_px	     ground_force_py	     ground_force_pz	     ground_force_vx	     ground_force_vy	     ground_force_vz	     ground_force_px	     ground_force_py	     ground_force_pz	     ground_torque_x	     ground_torque_y	     ground_torque_z	     ground_torque_x	     ground_torque_y	     ground_torque_z	    ground_marker_px	    ground_marker_py	    ground_marker_pz	    ground_marker_px	    ground_marker_py	    ground_marker_pz	    ground_marker_px	    ground_marker_py	    ground_marker_pz	    ground_marker_px	    ground_marker_py	    ground_marker_pz	    ground_marker_px	    ground_marker_py	    ground_marker_pz	    ground_marker_px	    ground_marker_py	    ground_marker_pz	    ground_marker_px	    ground_marker_py	    ground_marker_pz	    ground_marker_px	    ground_marker_py	    ground_marker_pz	    ground_marker_px	    ground_marker_py	    ground_marker_pz	    ground_marker_px	    ground_marker_py	    ground_marker_pz	    ground_marker_px	    ground_marker_py	    ground_marker_pz	    ground_marker_px	    ground_marker_py	    ground_marker_pz	    ground_marker_px	    ground_marker_py	    ground_marker_pz	    ground_marker_px	    ground_marker_py	    ground_marker_pz	    ground_marker_px	    ground_marker_py	    ground_marker_pz	    ground_marker_px	    ground_marker_py	    ground_marker_pz	    ground_marker_px	    ground_marker_py	    ground_marker_pz	    ground_marker_px	    ground_marker_py	    ground_marker_pz	    ground_marker_px	    ground_marker_py	    ground_marker_pz	    ground_marker_px	    ground_marker_py	    ground_marker_pz	    ground_marker_px	    ground_marker_py	    ground_marker_pz	    ground_marker_px	    ground_marker_py	    ground_marker_pz	    ground_marker_px	    ground_marker_py	    ground_marker_pz	    ground_marker_px	    ground_marker_py	    ground_marker_pz	    ground_marker_px	    ground_marker_py	    ground_marker_pz	    ground_marker_px	    ground_marker_py	    ground_marker_pz	    ground_marker_px	    ground_marker_py	    ground_marker_pz	    ground_marker_px	    ground_marker_py	    ground_marker_pz	    ground_marker_px	    ground_marker_py	    ground_marker_pz	    ground_marker_px	    ground_marker_py	    ground_marker_pz	    ground_marker_px	    ground_marker_py	    ground_marker_pz	    ground_marker_px	    ground_marker_py	    ground_marker_pz	    ground_marker_px	    ground_marker_py	    ground_marker_pz	    ground_marker_px	    ground_marker_py	    ground_marker_pz	    ground_marker_px	    ground_marker_py	    ground_marker_pz	    ground_marker_px	    ground_marker_py	    ground_marker_pz	    ground_marker_px	    ground_marker_py	    ground_marker_pz	
          0.29166669	          0.84782600	          0.69783819	         -0.26463532	          0.62101173	          0.05500079	         -1.91135907	        -13.58196259	          1.18530977	         -1.23748350	          1.60950792	          5.73604536	          0.00000000	          0.00000000	         23.44747543	         -4.04131699	         -8.62400532	        -29.15551567	          0.87598497	          0.00000000	          0.00000000	        -14.18397236	         -4.53007030	          6.30219412	          5.32427678	        170.80660282	         -7.06648655	          0.75902173	          0.00000000	         -0.21945021	          0.00000000	          0.00000000	          0.00000000	          1.20066174	          0.00000000	         -0.37691681	          0.00000000	          0.36513828	          0.00000000	          0.00000000	          0.00000000	          0.00000000	          0.79165727	          0.62777102	         -0.26202750	          0.79734594	          0.63950717	         -0.20721203	          0.80120832	          0.63884479	         -0.32459161	          0.72984380	          0.34526303	         -0.21402270	          0.92858642	          0.35495138	         -0.34076926	          0.67263395	          0.05891785	         -0.22149712	          0.90580982	          0.07481958	         -0.33289564	          0.84782600	          0.69783819	         -0.26463532	          0.84495795	          0.69833010	         -0.17747395	          0.85069412	          0.69734633	         -0.35179672	          0.71166015	          0.72769552	         -0.22739011	          0.71860796	          0.72140020	         -0.31188312	          0.72715068	          0.34481800	         -0.16810375	          0.92221171	          0.35480219	         -0.38834384	          0.71722156	          0.34773257	         -0.24816009	          0.95166183	          0.36076200	         -0.30231571	          0.66530085	          0.05952987	         -0.18881531	          0.88745588	          0.07555830	         -0.35970676	          0.66515273	          0.06481804	         -0.24866305	          0.91298246	          0.07485712	         -0.29921773	          0.79796827	          1.03596568	         -0.26853523	          0.89432299	          0.96997011	         -0.22992918	          0.88610429	          0.96487796	         -0.31863353	          0.87649614	          0.98046988	         -0.26624086	          0.91839546	          0.84526670	         -0.26728973	          0.86074460	          0.39987409	         -0.22929960	          0.94595987	          0.45628491	         -0.45284197	          0.80593836	          0.47152022	         -0.17930917	          0.93063647	          0.50820237	         -0.36924237	          0.77308404	          0.39098790	         -0.17804217	          0.96706277	          0.43294045	         -0.35555321	          0.70352173	          0.14882323	         -0.11336114	          1.00920856	          0.17709398	         -0.34194094	          0.70423645	          0.19966027	         -0.17586973	          0.95395517	          0.23159888	         -0.34802705	          0.75340962	          0.03935624	         -0.22631904	          0.98089749	          0.05367741	         -0.35552913	
          0.30000004	          0.85967851	          0.69592142	         -0.26538625	          0.89655113	          0.07333374	         -2.40419149	        -15.15309238	          0.98421639	         -1.57869935	          1.99837923	          6.05625725	          0.00000000	          0.00000000	         23.82880402	         -4.10542297	         -8.88455200	        -25.73572350	          0.83933932	          0.00000000	          0.00000000	        -14.61025620	         -4.65670872	          6.75082302	          7.25440637	        182.24570655	         -7.39443231	          0.76014581	          0.00000000	         -0.22019386	          0.00000000	          0.00000000	          0.00000000	          1.20443262	          0.00000000	         -0.37703323	          0.00000000	          0.46488617	          0.00000000	          0.00000000	          0.00000000	          0.00000000	          0.80376470	          0.62557751	         -0.26336640	          0.80899221	          0.63742566	         -0.20831323	          0.81385559	          0.63662422	         -0.32565472	          0.73498541	          0.34522435	         -0.21456818	          0.94474351	          0.35391629	         -0.34064811	          0.67330247	          0.05970300	         -0.22196181	          0.94139713	          0.07194347	         -0.33764255	          0.85967851	          0.69592142	         -0.26538625	          0.85606575	          0.69651675	         -0.17821802	          0.86329132	          0.69532603	         -0.35255447	          0.72292483	          0.72531646	         -0.22978039	          0.73079371	          0.71867627	         -0.31410411	          0.73165989	          0.34508449	         -0.16868874	          0.93855554	          0.35357574	         -0.38824636	          0.72382855	          0.34710148	         -0.24859290	          0.96499217	          0.35919720	         -0.30095658	          0.66560644	          0.06052160	         -0.18936807	          0.92349297	          0.07186685	         -0.36476609	          0.66594851	          0.06583510	         -0.24933806	          0.94834030	          0.07166614	         -0.30402544	          0.81003463	          1.03371358	         -0.26910615	          0.90625292	          0.96753639	         -0.23055673	          0.89804852	          0.96233976	         -0.31934562	          0.88830107	          0.97799861	         -0.26682276	          0.93007743	          0.84273213	         -0.26778895	          0.86751759	          0.39666381	         -0.22835630	          0.96091127	          0.45478785	         -0.45175916	          0.81242663	          0.47020927	         -0.17911175	          0.94430745	          0.50650251	         -0.36834940	          0.77914184	          0.39060307	         -0.17789663	          0.98081946	          0.43132037	         -0.35410851	          0.70438963	          0.14949672	         -0.11375105	          1.03694713	          0.18203919	         -0.34316513	          0.70636988	          0.20031203	         -0.17648794	          0.97791815	          0.23232661	         -0.34936854	          0.75365585	          0.03934652	         -0.22643758	          1.01841938	          0.05637156	         -0.35888326	
          0.30833337	          0.87167966	          0.69377601	         -0.26619017	          1.17560577	          0.07910865	         -2.91729212	        -16.70298195	          0.77064002	         -1.82966590	          2.30376792	          6.41383648	          0.00000000	          0.00000000	         24.12382889	         -4.17075777	         -9.20065308	        -22.30013275	          0.72607845	          0.00000000	          0.00000000	        -14.94372177	         -4.69338083	          7.18030977	          9.74686289	        194.76092791	         -7.87720195	          0.76111603	          0.00000000	         -0.22090613	          0.00000000	          0.00000000	          0.00000000	          1.20790686	          0.00000000	         -0.37718036	          0.00000000	          0.56318604	          0.00000000	          0.00000000	          0.00000000	          0.00000000	          0.81606025	          0.62315607	         -0.26474753	          0.82077658	          0.63512474	         -0.20947076	          0.82667798	          0.63416129	         -0.32676339	          0.74043816	          0.34508637	         -0.21518424	          0.96057951	          0.35264257	         -0.34043789	          0.67398977	          0.06050159	         -0.22241472	          0.97648185	          0.07015336	         -0.34233925	          0.87167966	          0.69377601	         -0.26619017	          0.86729330	          0.69449216	         -0.17900750	          0.87606609	          0.69305986	         -0.35337287	          0.73427945	          0.72272217	         -0.23217198	          0.74306726	          0.71571451	         -0.31632966	          0.73654950	          0.34526059	         -0.16934922	          0.95455331	          0.35208920	         -0.38805491	          0.73111945	          0.34552643	         -0.24957782	          0.97773159	          0.35684007	         -0.29958016	          0.66597009	          0.06154816	         -0.18990564	          0.95915192	          0.06936277	         -0.36982191	          0.66675836	          0.06678240	         -0.24993134	          0.98348927	          0.06955073	         -0.30888286	          0.82205361	          1.03115582	         -0.26978433	          0.91821110	          0.96474260	         -0.23125605	          0.91011745	          0.95953429	         -0.32015619	          0.90025890	          0.97527164	         -0.26758078	          0.94189048	          0.83989066	         -0.26847830	          0.87454134	          0.39340270	         -0.22762528	          0.97552902	          0.45290339	         -0.45046103	          0.81825572	          0.46829453	         -0.17907515	          0.95748496	          0.50407618	         -0.36712188	          0.78548855	          0.38992953	         -0.17813379	          0.99399722	          0.42910823	         -0.35247749	          0.70548218	          0.15018380	         -0.11417961	          1.06373072	          0.18734725	         -0.34399122	          0.70863086	          0.20074438	         -0.17691530	          1.00136507	          0.23331629	         -0.35056263	          0.75387979	          0.03932827	         -0.22656512	          1.05508387	          0.06005975	         -0.36203697	
          0.31666672	          0.88382810	          0.69141310	         -0.26703274	          1.44162178	          0.07392575	         -3.43021059	        -18.21022797	          0.54821873	         -1.99721229	          2.52210784	          6.81172085	          0.00000000	          0.00000000	         24.37137604	         -4.23889399	         -9.50337791	        -18.94292259	          0.57232726	          0.00000000	          0.00000000	        -15.26235104	         -4.67111921	          7.55504370	         12.84141772	        208.32377694	         -8.43587743	          0.76195789	          0.00000000	         -0.22160440	          0.00000000	          0.00000000	          0.00000000	          1.21104602	          0.00000000	         -0.37735736	          0.00000000	          0.65952563	          0.00000000	          0.00000000	          0.00000000	          0.00000000	          0.82846332	          0.62052047	         -0.26610684	          0.83270049	          0.63262451	         -0.21065848	          0.83963627	          0.63148558	         -0.32789296	          0.74621880	          0.34482405	         -0.21585986	          0.97616613	          0.35118514	         -0.34019735	          0.67471319	          0.06130788	         -0.22284636	          1.01071310	          0.06944349	         -0.34686264	          0.88382810	          0.69141310	         -0.26703274	          0.87866974	          0.69226015	         -0.17984204	          0.88898647	          0.69056606	         -0.35422343	          0.74575794	          0.71994627	         -0.23452494	          0.75544709	          0.71256948	         -0.31852755	          0.74184507	          0.34531075	         -0.17007084	          0.97031128	          0.35042441	         -0.38783288	          0.73810470	          0.34460959	         -0.25084183	          0.99054050	          0.35351264	         -0.29842716	          0.66641468	          0.06260171	         -0.19041628	          0.99410105	          0.06806657	         -0.37476236	          0.66758907	          0.06771304	         -0.25042140	          1.01803684	          0.06849863	         -0.31367379	          0.83404952	          1.02841473	         -0.27055147	          0.93013352	          0.96160614	         -0.23198397	          0.92224973	          0.95644265	         -0.32104793	          0.91228044	          0.97230595	         -0.26845121	          0.95361668	          0.83671021	         -0.26926300	          0.88180751	          0.39007542	         -0.22711624	          0.98995948	          0.45076716	         -0.44898501	          0.82535392	          0.46620321	         -0.17940593	          0.96975672	          0.50086302	         -0.36546037	          0.79208344	          0.38905361	         -0.17873320	          1.00682783	          0.42629647	         -0.35065934	          0.70683342	          0.15086336	         -0.11463288	          1.08944142	          0.19287927	         -0.34427774	          0.71107733	          0.20103195	         -0.17709744	          1.02417135	          0.23440850	         -0.35152444	          0.75409365	          0.03930242	         -0.22669643	          1.09058094	          0.06464989	         -0.36489332	
